<svg xmlns="http://www.w3.org/2000/svg" width="490.831" height="203" viewBox="0 0 490.831 203"><g transform="translate(-60.546 -219)"><text transform="translate(112.377 260)" fill="#fff" font-size="126" font-family="Roboto-Bold, Roboto" font-weight="700"><tspan x="0" y="120">Curious</tspan></text><text transform="translate(402.377 219)" fill="#cecece" font-size="75" font-family="Roboto-Bold, Roboto" font-weight="700"><tspan x="0" y="71">NOT</tspan></text><path d="M40,161.947H17.472L14.28,54.039H43.2Zm-26.381,33.26a19.1,19.1,0,0,1,1.08-6.524,15.545,15.545,0,0,1,3.051-5.187,13.858,13.858,0,0,1,4.741-3.422,15.226,15.226,0,0,1,6.243-1.23,15.558,15.558,0,0,1,6.29,1.23,13.747,13.747,0,0,1,4.788,3.422,15.545,15.545,0,0,1,3.051,5.187,19.1,19.1,0,0,1,1.08,6.524,18.648,18.648,0,0,1-1.08,6.47,15.656,15.656,0,0,1-3.051,5.133,13.747,13.747,0,0,1-4.788,3.422,15.558,15.558,0,0,1-6.29,1.23,15.226,15.226,0,0,1-6.243-1.23,13.858,13.858,0,0,1-4.741-3.422,15.656,15.656,0,0,1-3.051-5.133A18.648,18.648,0,0,1,13.623,195.207Z" transform="matrix(0.998, -0.07, 0.07, 0.998, 43.187, 172.331)" fill="#5d5d5d"/><rect width="479" height="10" transform="translate(72 412)" fill="#4b4848"/></g></svg>